<?xml version="1.0" encoding="UTF-8"?>
<svg id="Layer_1" data-name="Layer 1" xmlns="http://www.w3.org/2000/svg" viewBox="0 0 300 200">
  <defs>
    <style>
      .cls-1 {
        fill: none;
      }

      .cls-2 {
        fill: #bb86fc;
      }

      .cls-3 {
        opacity: .5;
      }
    </style>
  </defs>
  <g class="cls-3">
    <path class="cls-2" d="M281.12,192.12v-3s1.49,0,1.49,0c2.7,0,5.32-.96,7.38-2.7l1.15-.97,1.93,2.29-1.15.97c-2.6,2.19-5.91,3.4-9.31,3.41h-1.5ZM275.04,192.12h-12.08v-3h12.08v3ZM256.89,192.12h-12.08v-3h12.08v3ZM238.74,192.12h-12.08v-3h12.08v3ZM220.59,192.12h-12.08v-3h12.08v3ZM202.44,192.12h-12.08v-3h12.08v3ZM184.29,192.12h-12.08v-3h12.08v3ZM166.14,192.12h-12.08v-3h12.08v3ZM147.99,192.12h-12.07v-3h12.07v3ZM129.84,192.12h-12.08v-3h12.08v3ZM111.69,192.12h-12.08v-3h12.08v3ZM93.54,192.12h-12.08v-3h12.08v3ZM75.39,192.12h-12.08v-3h12.08v3ZM57.24,192.12h-12.07v-3h12.07v3ZM39.09,192.12h-12.08v-3h12.08v3ZM20.94,192.12h-4.35c-2.32,0-4.63-.56-6.68-1.63l-1.33-.69,1.38-2.66,1.33.69c1.64.86,3.43,1.29,5.3,1.29h4.35v3ZM3.78,184.58l-.58-1.38c-.74-1.77-1.11-3.64-1.11-5.57v-5.45h3v5.45c0,1.53.3,3.02.88,4.42l.58,1.38-2.77,1.15ZM296.62,181.6l-2.96-.52.26-1.48c.11-.65.17-1.31.17-1.98v-8.32h3v8.32c0,.84-.07,1.68-.21,2.5l-.26,1.48ZM5.09,166.1h-3v-12.08h3v12.08ZM297.09,163.22h-3v-12.08h3v12.08ZM5.09,147.95h-3v-12.08h3v12.08ZM297.09,145.07h-3v-12.08h3v12.08ZM5.09,129.8h-3v-12.07h3v12.07ZM297.09,126.92h-3v-12.08h3v12.08ZM5.09,111.65h-3v-12.08h3v12.08ZM297.09,108.77h-3v-12.08h3v12.08ZM5.09,93.5h-3v-12.08h3v12.08ZM297.09,90.62h-3v-12.08h3v12.08ZM5.09,75.35h-3v-12.08h3v12.08ZM297.09,72.47h-3v-12.07h3v12.07ZM5.09,57.2h-3v-12.08h3v12.08ZM297.09,54.32h-3v-12.08h3v12.08ZM5.09,39.05h-3v-12.08h3v12.08ZM297.09,36.17h-3v-12.08h3v12.08ZM5,21.14l-2.96-.51.25-1.48c.57-3.35,2.32-6.4,4.93-8.61l1.14-.97,1.94,2.29-1.15.97c-2.07,1.75-3.45,4.17-3.91,6.82l-.25,1.48ZM293.79,18.61l-.57-1.39c-1.03-2.49-2.92-4.55-5.31-5.8l-1.33-.69,1.39-2.66,1.33.69c3.02,1.58,5.39,4.17,6.69,7.31l.57,1.39-2.77,1.15ZM281.27,10.12h-12.08v-3h12.08v3ZM263.12,10.12h-12.08v-3h12.08v3ZM244.97,10.12h-12.08v-3h12.08v3ZM226.82,10.12h-12.08v-3h12.08v3ZM208.67,10.12h-12.07v-3h12.07v3ZM190.52,10.12h-12.08v-3h12.08v3ZM172.37,10.12h-12.08v-3h12.08v3ZM154.22,10.12h-12.08v-3h12.08v3ZM136.07,10.12h-12.07v-3h12.07v3ZM117.92,10.12h-12.08v-3h12.08v3ZM99.77,10.12h-12.08v-3h12.08v3ZM81.62,10.12h-12.08v-3h12.08v3ZM63.47,10.12h-12.08v-3h12.08v3ZM45.32,10.12h-12.07v-3h12.07v3ZM27.17,10.12h-12.08l-.06-3h12.13v3Z"/>
  </g>
  <g id="Path_27" data-name="Path 27">
    <path class="cls-2" d="M162.27,99.8h-25.69c-5.9,0-10.7-4.81-10.71-10.71v-2.57c0-1.66,1.34-3,3-3s3,1.34,3,3v2.57c0,2.59,2.12,4.71,4.71,4.71h25.69c2.59,0,4.71-2.11,4.71-4.71v-2.56c0-1.66,1.34-3,3-3s3,1.34,3,3v2.57c0,5.9-4.81,10.71-10.71,10.71ZM149.42,89.52c-1.66,0-3-1.34-3-3v-23.59l-5.16,5.16c-1.17,1.17-3.07,1.17-4.24,0s-1.17-3.07,0-4.24l10.28-10.28s0,0,0,0c0,0,0,0,0,0,0,0,0,0,0,0,0,0,0,0,0,0h0s0,0,0,0c0,0,0,0,0,0h0c.28-.28.6-.48.94-.63h0s0,0,0,0c.35-.15.73-.23,1.14-.23h.05c.39,0,.76.08,1.1.22.35.14.67.35.96.62h0s0,0,0,0c0,0,0,0,0,0,0,0,0,0,0,0,0,0,0,0,0,0,0,0,0,0,0,0h0s0,0,0,0c0,0,0,0,0,0,0,0,0,0,0,0h0s0,0,0,0c0,0,0,0,0,0h0s0,0,.01.01l10.28,10.28c1.17,1.17,1.17,3.07,0,4.24-1.17,1.17-3.07,1.17-4.24,0l-5.16-5.16v23.59c0,1.66-1.34,3-3,3Z"/>
  </g>
  <g id="Path_28" data-name="Path 28">
    <path class="cls-1" d="M118.59,45.41h61.67v61.67h-61.67v-61.67Z"/>
  </g>
</svg>