<?xml version="1.0" encoding="UTF-8"?>
<svg id="Layer_1" data-name="Layer 1" xmlns="http://www.w3.org/2000/svg" viewBox="0 0 54.98 49.29">
  <defs>
    <style>
      .cls-1 {
        fill: #fff;
      }

      .cls-2 {
        fill: none;
      }

      .cls-3 {
        fill: #fccf66;
      }
    </style>
  </defs>
  <rect class="cls-1" x="23.67" y="11.96" width="9.17" height="29.69"/>
  <g id="Group_33" data-name="Group 33">
    <rect id="Rectangle_12" data-name="Rectangle 12" class="cls-1" x="22.41" y="9.56" width="10.16" height="35.54"/>
    <g id="Group_25" data-name="Group 25">
      <path id="Path_32" data-name="Path 32" class="cls-3" d="M52.84,39.77L31.62,5.28c-1.63-2.38-4.89-2.99-7.28-1.36-.53.36-.99.82-1.36,1.36L1.79,39.77c-.85,1.32-.83,3.03.06,4.33.98,1.38,2.57,2.18,4.26,2.14h42.42c1.67.03,3.25-.76,4.21-2.12.89-1.28.93-2.97.1-4.29v-.06ZM25.34,13.84c.15-1.18,1.24-2.02,2.42-1.87.97.13,1.74.89,1.87,1.87v16.19c-.15,1.18-1.22,2.02-2.4,1.88-.98-.12-1.76-.9-1.88-1.88V13.84ZM27.49,40.63c-1.34.17-2.56-.79-2.73-2.13-.17-1.34.79-2.56,2.13-2.73.2-.02.4-.02.6,0,1.34-.17,2.56.79,2.73,2.13s-.79,2.56-2.13,2.73c-.2.02-.4.02-.6,0Z"/>
      <path id="Path_34" data-name="Path 34" class="cls-2" d="M0,0h54.98v49.29H0V0Z"/>
    </g>
  </g>
</svg>